<mxfile host="app.diagrams.net" modified="2021-03-17T05:23:33.389Z" agent="5.0 (Macintosh; Intel Mac OS X 10_15_7) AppleWebKit/537.36 (KHTML, like Gecko) Chrome/83.0.4103.61 Safari/537.36" etag="DvkP-rMnpDW7M9emyRZD" version="14.2.7" type="github">
  <diagram name="Page-1" id="74e2e168-ea6b-b213-b513-2b3c1d86103e">
    <mxGraphModel dx="1082" dy="722" grid="1" gridSize="10" guides="1" tooltips="1" connect="1" arrows="1" fold="1" page="1" pageScale="1" pageWidth="3300" pageHeight="2339" background="#ffffff" math="0" shadow="0">
      <root>
        <mxCell id="0" />
        <mxCell id="1" parent="0" />
        <mxCell id="wIeOYvZLzbR61r2OmlYB-1" value="" style="rounded=0;html=1;jettySize=auto;orthogonalLoop=1;fontSize=11;endArrow=block;endFill=0;endSize=8;strokeWidth=1;shadow=0;labelBackgroundColor=none;edgeStyle=orthogonalEdgeStyle;" edge="1" parent="1" source="wIeOYvZLzbR61r2OmlYB-2">
          <mxGeometry relative="1" as="geometry">
            <mxPoint x="120" y="140" as="targetPoint" />
          </mxGeometry>
        </mxCell>
        <mxCell id="wIeOYvZLzbR61r2OmlYB-2" value="LoginPrepareController" style="rounded=1;whiteSpace=wrap;html=1;fontSize=12;glass=0;strokeWidth=1;shadow=0;" vertex="1" parent="1">
          <mxGeometry x="50" y="35" width="140" height="40" as="geometry" />
        </mxCell>
        <mxCell id="wIeOYvZLzbR61r2OmlYB-10" value="LoginViewController" style="rounded=1;whiteSpace=wrap;html=1;fontSize=12;glass=0;strokeWidth=1;shadow=0;arcSize=18;" vertex="1" parent="1">
          <mxGeometry x="50" y="100" width="140" height="40" as="geometry" />
        </mxCell>
        <mxCell id="wIeOYvZLzbR61r2OmlYB-12" value="&lt;b&gt;&lt;font color=&quot;#ff0808&quot;&gt;Click &quot;Login&quot; Button&lt;/font&gt;&lt;/b&gt;" style="text;html=1;strokeColor=none;fillColor=none;align=left;verticalAlign=middle;whiteSpace=wrap;rounded=0;" vertex="1" parent="1">
          <mxGeometry x="120" y="78" width="130" height="20" as="geometry" />
        </mxCell>
        <mxCell id="wIeOYvZLzbR61r2OmlYB-13" value="CaptchaViewController" style="rounded=1;whiteSpace=wrap;html=1;fontSize=12;glass=0;strokeWidth=1;shadow=0;arcSize=18;" vertex="1" parent="1">
          <mxGeometry x="50" y="175" width="140" height="40" as="geometry" />
        </mxCell>
        <mxCell id="wIeOYvZLzbR61r2OmlYB-14" value="" style="rounded=0;html=1;jettySize=auto;orthogonalLoop=1;fontSize=11;endArrow=block;endFill=0;endSize=8;strokeWidth=1;shadow=0;labelBackgroundColor=none;edgeStyle=orthogonalEdgeStyle;exitX=0.5;exitY=1;exitDx=0;exitDy=0;entryX=0.5;entryY=0;entryDx=0;entryDy=0;" edge="1" parent="1" source="wIeOYvZLzbR61r2OmlYB-10" target="wIeOYvZLzbR61r2OmlYB-13">
          <mxGeometry relative="1" as="geometry">
            <mxPoint x="20" y="220" as="sourcePoint" />
            <mxPoint x="40" y="240" as="targetPoint" />
          </mxGeometry>
        </mxCell>
        <mxCell id="wIeOYvZLzbR61r2OmlYB-15" value="&lt;font color=&quot;#ff0808&quot;&gt;&lt;b&gt;Fill Email &amp;amp; Password&lt;br&gt;Click &quot;Log In&quot; Button&lt;br&gt;&lt;/b&gt;&lt;/font&gt;" style="text;html=1;strokeColor=none;fillColor=none;align=left;verticalAlign=middle;whiteSpace=wrap;rounded=0;" vertex="1" parent="1">
          <mxGeometry x="121" y="142" width="150" height="30" as="geometry" />
        </mxCell>
        <mxCell id="wIeOYvZLzbR61r2OmlYB-16" value="NewAuthenticationViewController" style="rounded=1;whiteSpace=wrap;html=1;fontSize=12;glass=0;strokeWidth=1;shadow=0;arcSize=18;" vertex="1" parent="1">
          <mxGeometry x="15" y="240" width="210" height="40" as="geometry" />
        </mxCell>
        <mxCell id="wIeOYvZLzbR61r2OmlYB-17" value="" style="rounded=0;html=1;jettySize=auto;orthogonalLoop=1;fontSize=11;endArrow=block;endFill=0;endSize=8;strokeWidth=1;shadow=0;labelBackgroundColor=none;edgeStyle=orthogonalEdgeStyle;exitX=0.5;exitY=1;exitDx=0;exitDy=0;entryX=0.5;entryY=0;entryDx=0;entryDy=0;" edge="1" parent="1" source="wIeOYvZLzbR61r2OmlYB-13" target="wIeOYvZLzbR61r2OmlYB-16">
          <mxGeometry relative="1" as="geometry">
            <mxPoint x="120" y="320" as="sourcePoint" />
            <mxPoint x="120" y="390" as="targetPoint" />
          </mxGeometry>
        </mxCell>
        <mxCell id="wIeOYvZLzbR61r2OmlYB-18" value="NewHomepageViewController" style="rounded=1;whiteSpace=wrap;html=1;fontSize=12;glass=0;strokeWidth=1;shadow=0;arcSize=18;" vertex="1" parent="1">
          <mxGeometry x="32.5" y="320" width="175" height="40" as="geometry" />
        </mxCell>
        <mxCell id="wIeOYvZLzbR61r2OmlYB-19" value="" style="rounded=0;html=1;jettySize=auto;orthogonalLoop=1;fontSize=11;endArrow=block;endFill=0;endSize=8;strokeWidth=1;shadow=0;labelBackgroundColor=none;edgeStyle=orthogonalEdgeStyle;entryX=0.5;entryY=0;entryDx=0;entryDy=0;exitX=0.5;exitY=1;exitDx=0;exitDy=0;" edge="1" parent="1" source="wIeOYvZLzbR61r2OmlYB-16" target="wIeOYvZLzbR61r2OmlYB-18">
          <mxGeometry relative="1" as="geometry">
            <mxPoint x="170" y="310" as="sourcePoint" />
            <mxPoint x="130" y="330" as="targetPoint" />
            <Array as="points">
              <mxPoint x="120" y="320" />
              <mxPoint x="120" y="320" />
            </Array>
          </mxGeometry>
        </mxCell>
        <mxCell id="wIeOYvZLzbR61r2OmlYB-20" value="&lt;font color=&quot;#ff0808&quot;&gt;&lt;b&gt;Fill SMS Code Or GA Code&lt;br&gt;&lt;/b&gt;&lt;/font&gt;" style="text;html=1;strokeColor=none;fillColor=none;align=left;verticalAlign=middle;whiteSpace=wrap;rounded=0;" vertex="1" parent="1">
          <mxGeometry x="121" y="290" width="159" height="10" as="geometry" />
        </mxCell>
        <mxCell id="wIeOYvZLzbR61r2OmlYB-22" value=":Object" style="shape=umlLifeline;perimeter=lifelinePerimeter;container=1;collapsible=0;recursiveResize=0;rounded=0;shadow=0;strokeWidth=1;" vertex="1" parent="1">
          <mxGeometry x="325" y="20" width="100" height="300" as="geometry" />
        </mxCell>
        <mxCell id="wIeOYvZLzbR61r2OmlYB-23" value="" style="points=[];perimeter=orthogonalPerimeter;rounded=0;shadow=0;strokeWidth=1;" vertex="1" parent="wIeOYvZLzbR61r2OmlYB-22">
          <mxGeometry x="45" y="70" width="10" height="190" as="geometry" />
        </mxCell>
        <mxCell id="wIeOYvZLzbR61r2OmlYB-24" value="dispatch" style="verticalAlign=bottom;startArrow=oval;endArrow=block;startSize=8;shadow=0;strokeWidth=1;" edge="1" parent="wIeOYvZLzbR61r2OmlYB-22" target="wIeOYvZLzbR61r2OmlYB-23">
          <mxGeometry relative="1" as="geometry">
            <mxPoint x="-15" y="70" as="sourcePoint" />
          </mxGeometry>
        </mxCell>
        <mxCell id="wIeOYvZLzbR61r2OmlYB-25" value="" style="points=[];perimeter=orthogonalPerimeter;rounded=0;shadow=0;strokeWidth=1;" vertex="1" parent="wIeOYvZLzbR61r2OmlYB-22">
          <mxGeometry x="50" y="120" width="10" height="80" as="geometry" />
        </mxCell>
        <mxCell id="wIeOYvZLzbR61r2OmlYB-26" value=":Object" style="shape=umlLifeline;perimeter=lifelinePerimeter;container=1;collapsible=0;recursiveResize=0;rounded=0;shadow=0;strokeWidth=1;" vertex="1" parent="1">
          <mxGeometry x="505" y="20" width="100" height="300" as="geometry" />
        </mxCell>
        <mxCell id="wIeOYvZLzbR61r2OmlYB-27" value="" style="points=[];perimeter=orthogonalPerimeter;rounded=0;shadow=0;strokeWidth=1;" vertex="1" parent="wIeOYvZLzbR61r2OmlYB-26">
          <mxGeometry x="45" y="80" width="10" height="160" as="geometry" />
        </mxCell>
        <mxCell id="wIeOYvZLzbR61r2OmlYB-28" value="return" style="verticalAlign=bottom;endArrow=open;dashed=1;endSize=8;exitX=0;exitY=0.95;shadow=0;strokeWidth=1;" edge="1" parent="1" source="wIeOYvZLzbR61r2OmlYB-27" target="wIeOYvZLzbR61r2OmlYB-23">
          <mxGeometry relative="1" as="geometry">
            <mxPoint x="480" y="176" as="targetPoint" />
          </mxGeometry>
        </mxCell>
        <mxCell id="wIeOYvZLzbR61r2OmlYB-29" value="dispatch" style="verticalAlign=bottom;endArrow=block;entryX=0;entryY=0;shadow=0;strokeWidth=1;" edge="1" parent="1" source="wIeOYvZLzbR61r2OmlYB-23" target="wIeOYvZLzbR61r2OmlYB-27">
          <mxGeometry relative="1" as="geometry">
            <mxPoint x="480" y="100" as="sourcePoint" />
          </mxGeometry>
        </mxCell>
        <mxCell id="wIeOYvZLzbR61r2OmlYB-30" value="callback" style="verticalAlign=bottom;endArrow=block;entryX=1;entryY=0;shadow=0;strokeWidth=1;" edge="1" parent="1" source="wIeOYvZLzbR61r2OmlYB-27" target="wIeOYvZLzbR61r2OmlYB-25">
          <mxGeometry relative="1" as="geometry">
            <mxPoint x="445" y="140" as="sourcePoint" />
          </mxGeometry>
        </mxCell>
        <mxCell id="wIeOYvZLzbR61r2OmlYB-31" value="return" style="verticalAlign=bottom;endArrow=open;dashed=1;endSize=8;exitX=1;exitY=0.95;shadow=0;strokeWidth=1;" edge="1" parent="1" source="wIeOYvZLzbR61r2OmlYB-25" target="wIeOYvZLzbR61r2OmlYB-27">
          <mxGeometry relative="1" as="geometry">
            <mxPoint x="445" y="197" as="targetPoint" />
          </mxGeometry>
        </mxCell>
      </root>
    </mxGraphModel>
  </diagram>
</mxfile>
